<?xml version="1.0" standalone="no"?>
<!DOCTYPE svg PUBLIC "-//W3C//DTD SVG 20010904//EN"
 "http://www.w3.org/TR/2001/REC-SVG-20010904/DTD/svg10.dtd">
<svg version="1.0" xmlns="http://www.w3.org/2000/svg"
 width="300.000000pt" height="300.000000pt" viewBox="0 0 300.000000 300.000000"
 preserveAspectRatio="xMidYMid meet">
<metadata>
Created by potrace 1.10, written by Peter Selinger 2001-2011
</metadata>
<g transform="translate(0.000000,300.000000) scale(0.100000,-0.100000)"
fill="#000000" stroke="none">
<path d="M82 2911 c-23 -49 -42 -93 -42 -98 0 -6 -8 -25 -17 -44 -15 -28 -18
-63 -18 -200 0 -154 2 -169 24 -217 40 -86 113 -99 210 -38 29 19 40 31 33 38
-10 10 -52 -9 -52 -24 0 -5 -6 -8 -14 -8 -8 0 -16 -4 -18 -10 -1 -5 -22 -11
-46 -12 -49 -2 -66 13 -100 85 -42 91 -38 284 8 380 11 22 20 45 20 50 0 8 49
119 71 159 12 23 11 28 -4 28 -7 0 -32 -40 -55 -89z"/>
<path d="M757 2963 c-9 -21 -27 -65 -41 -97 l-25 -60 -26 60 c-15 32 -31 69
-36 82 -5 12 -13 22 -19 22 -13 0 -13 -37 0 -45 6 -3 10 -12 10 -19 0 -17 95
-190 127 -232 12 -17 23 -35 23 -41 0 -5 12 -20 26 -34 15 -13 37 -40 49 -59
13 -19 53 -66 89 -105 36 -38 66 -72 66 -76 0 -4 -13 -34 -29 -66 -24 -48 -58
-128 -102 -238 -17 -44 -28 -94 -40 -188 -6 -54 -18 -104 -25 -111 -7 -7 -9
-17 -5 -22 14 -15 22 -169 8 -155 -32 32 -107 -6 -133 -67 -41 -94 -49 -210
-20 -305 12 -41 11 -51 -11 -118 -22 -66 -24 -87 -20 -189 4 -120 25 -201 83
-326 13 -28 24 -55 24 -60 0 -5 9 -15 20 -22 11 -7 20 -18 20 -26 0 -7 8 -20
17 -27 10 -8 14 -9 10 -2 -4 7 0 16 10 22 14 8 15 10 3 11 -18 0 -78 88 -91
132 -4 16 -12 35 -17 41 -13 18 -40 114 -53 191 -13 77 -6 182 15 242 l14 39
11 -30 c22 -58 66 -125 83 -125 15 0 8 19 -15 43 -27 30 -54 98 -75 192 -39
174 -10 323 70 363 50 24 70 -3 87 -116 11 -67 18 -85 31 -77 4 3 4 20 0 38
-17 64 -30 179 -30 255 0 99 19 292 31 314 5 10 9 23 9 30 0 6 8 30 19 52 38
84 51 114 51 120 0 15 93 197 104 204 6 4 22 27 35 52 23 43 78 112 94 118 4
1 25 19 47 40 22 20 60 49 85 62 l46 25 25 -33 c14 -17 32 -32 40 -32 21 0 17
14 -11 40 -41 39 -32 51 46 66 20 4 28 -1 36 -18 l11 -23 11 28 c10 25 14 27
72 27 50 0 60 -3 55 -15 -3 -9 0 -15 9 -15 8 0 15 5 15 10 0 19 34 10 76 -22
24 -18 44 -36 44 -39 0 -4 -12 -10 -27 -14 -26 -6 -43 -21 -43 -37 0 -15 24
-8 46 13 13 12 30 19 38 16 16 -6 76 -116 76 -139 1 -17 50 -77 50 -60 0 7 -5
21 -12 32 -20 32 -1 35 26 4 48 -56 97 -167 121 -274 18 -84 14 -216 -12 -355
-30 -166 -46 -355 -41 -523 l3 -133 -37 -6 c-45 -7 -48 -23 -11 -49 14 -10 33
-26 42 -34 9 -9 38 -24 64 -34 26 -10 47 -22 47 -27 0 -10 -106 -1 -131 12 -9
4 -54 12 -100 17 -164 19 -184 13 -103 -29 103 -54 235 -191 247 -256 6 -31 5
-33 -21 -33 -15 0 -40 7 -56 15 -111 58 -469 73 -499 20 -11 -21 -37 -2 -37
27 0 23 -53 132 -75 154 -8 9 -15 19 -15 23 0 13 -91 125 -123 151 -17 14 -46
40 -65 58 -30 28 -62 42 -62 26 0 -3 13 -31 28 -62 16 -31 37 -88 47 -127 10
-38 22 -74 27 -79 12 -14 10 -26 -5 -26 -13 0 -64 92 -70 126 -1 10 -15 41
-29 67 -37 66 -79 214 -75 262 2 16 -3 19 -23 17 -14 -1 -26 -7 -28 -12 -2 -6
-8 -10 -12 -10 -5 0 -31 -21 -57 -46 -36 -35 -51 -59 -60 -96 -7 -28 -22 -63
-33 -78 -11 -15 -20 -33 -20 -39 0 -6 -4 -11 -10 -11 -5 0 -10 -12 -9 -27 0
-25 1 -26 12 -10 7 10 22 31 34 45 13 15 23 35 23 44 0 9 4 19 9 22 5 4 12 23
16 44 5 34 50 91 109 140 23 18 24 16 31 -35 12 -87 40 -176 72 -225 12 -21
23 -43 23 -49 0 -19 50 -113 75 -139 12 -14 26 -35 30 -48 7 -23 39 -46 56
-40 6 2 -1 16 -14 32 -18 20 -26 45 -31 90 -3 33 -17 92 -31 131 -13 38 -22
71 -21 73 12 11 166 -171 166 -196 0 -7 4 -12 9 -12 15 0 101 -184 91 -194 -6
-6 -10 -14 -10 -18 0 -14 21 -9 53 14 29 21 91 37 167 42 65 5 234 -21 305
-46 39 -14 87 -26 108 -26 l39 0 -7 36 c-14 74 -37 111 -115 184 -96 89 -104
96 -132 108 -20 9 -19 10 7 5 17 -3 41 -7 55 -9 14 -2 60 -11 102 -20 72 -15
123 -14 159 5 17 9 80 -17 132 -54 21 -14 31 -17 40 -8 8 8 5 11 -10 11 -12 0
-28 8 -35 19 -15 21 -106 67 -115 58 -7 -8 -51 15 -121 61 -37 25 -49 38 -40
44 19 11 136 10 143 -2 4 -6 12 -10 18 -8 56 10 274 -59 299 -96 5 -7 8 -4 8
6 0 30 -56 60 -180 95 -64 18 -62 18 -161 27 l-76 8 -7 107 c-4 58 -4 131 -2
161 3 30 11 114 17 185 6 72 16 135 21 141 5 7 8 16 7 20 -5 20 14 155 22 160
5 3 8 36 8 74 -1 38 2 74 6 81 5 8 4 10 -3 5 -9 -5 -12 6 -12 37 0 40 -24 127
-48 173 -5 10 -16 33 -23 49 -24 53 -61 104 -79 110 -30 9 -58 40 -66 70 -8
34 -16 44 -111 147 -20 21 -43 39 -43 33 0 -3 -8 -2 -17 3 -10 6 -51 12 -92
16 -43 3 -78 11 -83 18 -6 10 -8 9 -8 -3 0 -20 -20 -29 -60 -29 -16 0 -41 -5
-57 -11 -15 -6 -29 -9 -29 -7 -1 2 -10 -4 -20 -13 -11 -9 -29 -20 -41 -23 -13
-4 -23 -12 -23 -17 0 -5 -7 -9 -15 -9 -9 0 -18 -7 -22 -16 -3 -8 -15 -20 -27
-25 -37 -16 -127 -89 -110 -89 3 0 -2 -8 -12 -17 -10 -10 -21 -18 -25 -18 -4
0 -11 -3 -15 -7 -4 -5 -2 -8 5 -8 13 0 -3 -32 -39 -80 -17 -22 -19 -23 -35 -7
-9 9 -14 21 -11 26 4 5 -10 19 -29 31 -41 25 -43 32 -12 53 12 8 19 18 15 22
-3 4 -16 -3 -29 -16 l-22 -22 -34 37 c-19 20 -31 41 -28 46 3 5 -4 11 -15 15
-17 5 -25 18 -18 28 1 1 -10 15 -25 31 -15 16 -27 34 -27 40 0 6 -16 33 -35
60 -34 47 -34 49 -18 80 9 17 24 43 34 58 11 14 19 35 19 46 0 12 5 24 10 27
12 8 13 45 1 45 -5 0 -16 -17 -24 -37z"/>
<path d="M881 2978 c-32 -51 -61 -109 -72 -150 -7 -24 -19 -47 -26 -51 -7 -4
-13 -19 -13 -33 0 -15 4 -23 10 -19 6 4 8 11 5 16 -4 5 -1 9 4 9 14 0 43 70
37 87 -3 7 -1 13 3 13 7 0 56 87 79 142 8 18 -14 6 -27 -14z"/>
<path d="M2428 2733 c7 -3 16 -2 19 1 4 3 -2 6 -13 5 -11 0 -14 -3 -6 -6z"/>
<path d="M50 2662 c0 -5 26 -27 58 -50 31 -23 77 -59 101 -80 24 -20 69 -56
100 -78 80 -59 151 -134 127 -134 -11 0 -34 -11 -52 -25 -18 -14 -35 -25 -39
-25 -3 0 -15 -9 -27 -20 -12 -10 -25 -17 -29 -14 -4 2 -11 -1 -15 -7 -10 -17
-111 -59 -143 -59 -48 0 -92 21 -112 54 -16 26 -19 28 -19 10 0 -46 56 -84
124 -84 42 0 117 25 124 43 2 4 11 7 19 7 9 0 36 15 62 33 25 18 68 44 94 57
l49 24 51 -54 c28 -30 64 -65 80 -77 16 -12 35 -32 41 -44 14 -29 36 -36 36
-12 0 21 -352 362 -375 363 -5 0 -28 17 -50 36 -82 74 -95 84 -102 84 -4 0
-18 11 -32 24 -28 26 -71 43 -71 28z"/>
<path d="M1260 2583 c1 -13 97 -83 114 -83 28 0 17 17 -29 47 -25 15 -45 31
-45 36 0 4 -9 7 -20 7 -11 0 -20 -3 -20 -7z"/>
<path d="M885 2569 c-4 -6 -5 -12 -2 -15 2 -3 7 2 10 11 7 17 1 20 -8 4z"/>
<path d="M1793 2476 c-57 -12 -74 -23 -51 -31 20 -8 111 18 116 33 4 14 5 14
-65 -2z"/>
<path d="M1160 2451 c0 -13 16 -23 75 -44 76 -27 115 -31 115 -13 0 10 -9 16
-25 16 -13 0 -54 11 -91 25 -76 29 -74 28 -74 16z"/>
<path d="M375 2340 c-3 -5 -1 -10 4 -10 6 0 11 5 11 10 0 6 -2 10 -4 10 -3 0
-8 -4 -11 -10z"/>
<path d="M585 2300 c3 -5 8 -10 11 -10 2 0 4 5 4 10 0 6 -5 10 -11 10 -5 0 -7
-4 -4 -10z"/>
<path d="M1015 2250 c-3 -5 -1 -10 4 -10 6 0 11 5 11 10 0 6 -2 10 -4 10 -3 0
-8 -4 -11 -10z"/>
<path d="M68 2233 c7 -3 16 -2 19 1 4 3 -2 6 -13 5 -11 0 -14 -3 -6 -6z"/>
<path d="M435 2231 c-3 -5 -1 -12 5 -16 5 -3 10 1 10 9 0 18 -6 21 -15 7z"/>
<path d="M1716 2199 c-22 -111 9 -303 73 -453 50 -117 51 -137 9 -169 -73 -55
-117 -70 -188 -65 -105 8 -154 47 -152 120 2 39 -11 51 -22 22 -11 -28 -6 -56
16 -95 18 -33 31 -42 86 -60 44 -15 78 -20 109 -16 56 6 170 64 196 98 16 23
17 31 7 69 -6 24 -25 72 -41 107 -16 35 -29 68 -29 74 0 6 -9 42 -21 79 -17
58 -20 89 -17 195 2 88 0 125 -8 125 -6 0 -14 -14 -18 -31z"/>
<path d="M380 2195 c0 -8 4 -15 10 -15 5 0 7 7 4 15 -4 8 -8 15 -10 15 -2 0
-4 -7 -4 -15z"/>
<path d="M571 2174 c0 -11 3 -14 6 -6 3 7 2 16 -1 19 -3 4 -6 -2 -5 -13z"/>
<path d="M1382 2179 c-48 -14 -72 -59 -72 -136 0 -34 5 -65 10 -68 12 -7 13 3
10 71 -2 66 33 114 85 114 19 0 37 5 40 10 3 6 2 10 -4 10 -5 0 -15 2 -23 4
-7 2 -28 0 -46 -5z"/>
<path d="M1838 2126 c-10 -7 -18 -21 -18 -30 0 -9 -4 -16 -8 -16 -16 0 -35
-77 -28 -115 9 -48 24 -34 30 28 5 58 47 127 76 127 11 0 20 5 20 10 0 14 -52
12 -72 -4z"/>
<path d="M675 2101 c-6 -10 11 -51 21 -51 3 0 2 10 -1 23 -4 14 16 -2 60 -47
62 -65 96 -84 62 -34 -51 75 -127 133 -142 109z"/>
<path d="M1440 2074 c-44 -71 11 -142 59 -76 25 36 27 74 5 96 -24 24 -40 19
-64 -20z m41 -38 c-4 -6 -11 -18 -14 -26 -3 -8 -6 2 -6 24 -1 33 1 37 14 26 9
-8 12 -17 6 -24z"/>
<path d="M1870 2025 c-7 -8 -16 -33 -20 -55 -9 -49 6 -76 37 -66 45 14 59 128
17 134 -11 2 -27 -4 -34 -13z m24 -59 c-3 -14 -10 -23 -15 -21 -4 3 -3 17 3
30 14 31 21 26 12 -9z"/>
<path d="M414 2018 c-4 -7 -3 -8 4 -4 7 4 12 2 12 -3 0 -6 5 -11 10 -11 6 0
10 7 10 15 0 18 -26 20 -36 3z"/>
<path d="M467 2003 c-3 -5 1 -19 9 -33 l13 -25 1 27 c0 27 -14 45 -23 31z"/>
<path d="M755 1869 c-22 -42 -27 -67 -30 -145 -2 -73 0 -94 10 -94 10 0 13 22
12 93 -1 82 2 97 25 139 15 27 23 50 18 53 -4 3 -20 -18 -35 -46z"/>
<path d="M513 1870 c0 -25 2 -35 4 -22 2 12 2 32 0 45 -2 12 -4 2 -4 -23z"/>
<path d="M710 1900 c-8 -5 -11 -12 -7 -16 4 -4 13 -2 19 4 6 6 10 14 7 16 -2
3 -11 1 -19 -4z"/>
<path d="M675 1866 c-20 -21 -26 -36 -16 -36 6 0 15 9 21 21 13 24 10 32 -5
15z"/>
<path d="M901 1864 c0 -11 3 -14 6 -6 3 7 2 16 -1 19 -3 4 -6 -2 -5 -13z"/>
<path d="M606 1779 c-15 -22 -25 -43 -22 -47 3 -3 7 -3 9 -1 2 2 15 21 30 41
29 39 32 48 18 48 -4 0 -21 -18 -35 -41z"/>
<path d="M2145 1791 c-3 -5 8 -19 25 -31 46 -33 190 -279 190 -326 0 -8 5 -14
10 -14 6 0 10 -11 10 -24 0 -14 5 -28 10 -31 6 -3 10 -15 10 -26 0 -11 7 -33
15 -50 18 -33 11 -57 -10 -39 -10 8 -48 10 -119 6 -109 -5 -166 -23 -166 -51
0 -19 14 -19 33 -1 19 20 156 38 231 31 115 -11 224 -40 246 -66 3 -3 12 -9
20 -12 80 -38 231 -142 298 -206 33 -32 52 -44 52 -34 0 9 -19 34 -42 56 -48
43 -189 144 -196 139 -3 -2 -8 1 -11 6 -3 5 -26 20 -49 33 -56 31 -93 52 -112
64 -8 5 -21 10 -30 12 -14 2 -31 5 -98 19 -12 2 -22 10 -20 17 4 20 -19 87
-65 187 -14 30 -28 65 -32 77 -6 21 -20 47 -78 145 -21 35 -101 128 -111 128
-3 0 -7 -4 -11 -9z"/>
<path d="M2080 1730 c0 -13 7 -20 20 -20 19 0 19 1 3 20 -10 11 -19 20 -20 20
-2 0 -3 -9 -3 -20z"/>
<path d="M772 1718 c-6 -6 -12 -19 -12 -27 0 -13 2 -13 16 1 9 9 15 21 13 27
-3 9 -8 8 -17 -1z"/>
<path d="M2163 1708 c3 -13 12 -44 21 -70 8 -27 11 -48 6 -48 -5 0 -10 8 -12
18 -2 10 -6 13 -10 6 -4 -6 4 -32 17 -59 14 -27 25 -54 25 -62 0 -7 5 -13 10
-13 13 0 13 21 -3 105 -13 65 -43 145 -54 145 -3 0 -3 -10 0 -22z"/>
<path d="M550 1677 c-40 -89 -60 -194 -60 -307 0 -116 7 -170 22 -170 6 0 8
53 5 133 -4 143 16 269 56 354 6 13 7 26 4 30 -4 3 -16 -15 -27 -40z"/>
<path d="M2128 1665 c9 -19 23 -35 31 -35 12 0 12 3 -1 18 -8 9 -18 25 -21 35
-4 9 -11 17 -16 17 -6 0 -3 -16 7 -35z"/>
<path d="M495 1640 c3 -5 8 -10 11 -10 2 0 4 5 4 10 0 6 -5 10 -11 10 -5 0 -7
-4 -4 -10z"/>
<path d="M2071 1504 c0 -11 3 -14 6 -6 3 7 2 16 -1 19 -3 4 -6 -2 -5 -13z"/>
<path d="M435 1423 c-17 -31 -44 -80 -61 -108 -17 -27 -41 -76 -53 -107 -13
-32 -28 -58 -34 -58 -6 0 -8 -2 -5 -6 3 -3 0 -25 -8 -50 -18 -62 -19 -377 0
-466 15 -72 61 -222 77 -250 5 -10 9 -27 9 -38 0 -11 4 -20 10 -20 5 0 12 -16
16 -36 4 -19 13 -38 20 -41 8 -3 14 -11 14 -19 0 -8 5 -14 10 -14 6 0 10 -5
10 -11 0 -26 141 -179 166 -179 8 0 14 -4 14 -10 0 -5 10 -10 23 -10 21 1 21
1 2 12 -11 7 -25 16 -31 22 -6 6 -22 21 -35 32 -13 12 -39 39 -56 60 -18 22
-46 55 -63 75 -16 20 -30 41 -30 47 0 6 -8 15 -17 21 -10 5 -15 13 -11 17 4 3
1 18 -6 33 -44 87 -121 370 -125 460 -3 74 14 88 23 18 17 -127 71 -347 86
-347 4 0 20 -25 36 -56 35 -67 50 -82 66 -66 9 9 6 16 -9 29 -11 10 -23 28
-27 41 -4 12 -18 33 -30 47 -33 36 -76 188 -96 340 -6 50 -18 116 -27 149 -14
58 -11 132 7 165 4 9 9 19 9 23 11 52 105 233 122 233 7 0 15 9 17 20 2 11 10
37 18 58 16 43 17 47 6 47 -4 0 -21 -26 -37 -57z"/>
<path d="M2071 1454 c0 -11 3 -14 6 -6 3 7 2 16 -1 19 -3 4 -6 -2 -5 -13z"/>
<path d="M1596 1339 c-58 -20 -102 -43 -121 -63 -56 -60 -125 -101 -204 -123
-10 -2 -11 -7 -4 -14 7 -7 24 -5 54 7 32 12 70 16 137 14 98 -2 271 17 287 31
5 5 17 9 27 9 10 0 18 7 18 15 0 10 -10 14 -37 12 -45 -2 -51 17 -13 36 19 10
24 19 22 40 -4 29 6 35 26 15 9 -9 15 -9 24 0 16 16 6 23 -44 33 -65 12 -107
9 -172 -12z m137 -42 c-7 -16 -23 -27 -45 -31 -59 -12 -198 -19 -198 -10 0 17
122 67 179 74 65 7 79 0 64 -33z m-168 -91 c8 -7 11 -16 8 -20 -9 -9 -163 -7
-163 2 0 4 12 15 28 25 31 20 104 16 127 -7z m129 9 c4 -10 -1 -15 -17 -15
-12 1 -37 -2 -54 -6 -22 -4 -33 -2 -33 5 0 7 10 10 25 7 13 -3 28 0 31 6 4 6
3 8 -2 5 -6 -3 -16 -2 -24 4 -11 6 -3 9 26 9 28 0 44 -5 48 -15z"/>
<path d="M940 1310 c0 -11 -5 -20 -11 -20 -17 0 -34 -22 -52 -68 -20 -49 -21
-62 -7 -62 5 0 17 17 25 37 9 20 29 58 45 85 22 36 26 48 15 48 -8 0 -15 -9
-15 -20z"/>
<path d="M2481 1314 c0 -11 3 -14 6 -6 3 7 2 16 -1 19 -3 4 -6 -2 -5 -13z"/>
<path d="M113 1263 c9 -2 25 -2 35 0 9 3 1 5 -18 5 -19 0 -27 -2 -17 -5z"/>
<path d="M285 1260 c-3 -5 -1 -10 4 -10 6 0 11 5 11 10 0 6 -2 10 -4 10 -3 0
-8 -4 -11 -10z"/>
<path d="M1257 1223 c-4 -3 -7 -15 -7 -26 0 -16 3 -17 15 -7 8 7 15 19 15 26
0 15 -12 19 -23 7z"/>
<path d="M841 1117 c-15 -47 -15 -167 1 -203 12 -28 13 -21 13 88 0 88 3 121
13 127 11 7 11 9 -2 14 -10 4 -18 -4 -25 -26z"/>
<path d="M228 1133 c7 -3 16 -2 19 1 4 3 -2 6 -13 5 -11 0 -14 -3 -6 -6z"/>
<path d="M118 1123 c6 -2 18 -2 25 0 6 3 1 5 -13 5 -14 0 -19 -2 -12 -5z"/>
<path d="M2670 1080 c0 -5 5 -10 11 -10 5 0 7 5 4 10 -3 6 -8 10 -11 10 -2 0
-4 -4 -4 -10z"/>
<path d="M2230 1070 c0 -5 5 -10 11 -10 5 0 7 5 4 10 -3 6 -8 10 -11 10 -2 0
-4 -4 -4 -10z"/>
<path d="M2160 975 c0 -3 26 -18 58 -35 125 -65 183 -102 227 -142 17 -15 35
-28 41 -28 6 0 17 -7 24 -15 14 -16 30 -20 30 -7 0 11 -116 102 -129 102 -5 0
-11 4 -13 8 -3 8 -40 30 -150 91 -51 28 -88 39 -88 26z"/>
<path d="M1638 963 c7 -3 16 -2 19 1 4 3 -2 6 -13 5 -11 0 -14 -3 -6 -6z"/>
<path d="M787 943 c-8 -13 30 -93 43 -93 14 0 12 9 -14 59 -13 24 -26 39 -29
34z"/>
<path d="M848 860 c-8 -22 24 -151 37 -147 11 4 15 49 5 57 -3 3 -12 27 -21
55 -9 30 -17 44 -21 35z"/>
<path d="M1820 720 c0 -5 5 -10 11 -10 5 0 7 5 4 10 -3 6 -8 10 -11 10 -2 0
-4 -4 -4 -10z"/>
<path d="M2977 672 c-36 -74 -59 -112 -68 -112 -5 0 -9 -7 -9 -15 0 -8 -21
-36 -46 -62 -66 -69 -69 -73 -53 -73 8 0 38 22 66 48 57 51 137 193 131 231
-2 17 -6 13 -21 -17z"/>
<path d="M2990 541 c0 -7 -5 -9 -10 -6 -6 3 -14 -4 -19 -17 -8 -20 -17 -33
-61 -85 -5 -7 -10 -17 -10 -23 0 -5 -4 -10 -10 -10 -5 0 -10 -4 -10 -10 0 -5
-18 -28 -40 -50 -22 -22 -40 -44 -40 -48 0 -4 -14 -16 -30 -25 -17 -10 -45
-32 -63 -48 -17 -17 -44 -37 -59 -45 -16 -8 -28 -18 -28 -23 0 -7 -9 -11 -45
-20 -2 -1 -16 -12 -31 -26 -14 -13 -38 -27 -54 -30 -15 -3 -36 -15 -45 -25
-10 -11 -33 -22 -51 -26 -19 -3 -31 -10 -28 -15 7 -12 44 -11 44 1 0 6 7 10
17 10 16 0 122 56 178 94 78 53 143 104 180 139 21 22 48 46 60 56 11 9 31 32
45 51 13 19 28 40 32 45 27 32 89 138 84 143 -3 3 -6 0 -6 -7z"/>
<path d="M2805 384 c-9 -9 -13 -19 -10 -22 3 -3 15 4 28 16 12 12 16 22 10 22
-6 0 -19 -7 -28 -16z"/>
<path d="M15 341 c-15 -6 -10 -9 25 -15 29 -4 46 -3 48 4 2 5 8 7 14 4 5 -4
48 -6 95 -5 48 1 91 -3 98 -9 10 -8 15 -8 20 1 4 6 1 15 -6 20 -17 11 -266 11
-294 0z"/>
<path d="M331 324 c0 -11 3 -14 6 -6 3 7 2 16 -1 19 -3 4 -6 -2 -5 -13z"/>
<path d="M398 23 c7 -3 16 -2 19 1 4 3 -2 6 -13 5 -11 0 -14 -3 -6 -6z"/>
</g>
</svg>
